# xmcd CD database file
#
# Track frame offsets:
#	150
#	17132
#	40772
#
# Disc length: 834 seconds
#
# Revision: 0
# Processed by: cddbd v1.5.1PL0 Copyright (c) Steve Scherf et al.
# Submitted via: CDex 1.51
#
DISCID=1a034003
DTITLE=SKOOP - No Make de On The Bed
DYEAR=1997
DGENRE=R&B
TTITLE0=No Make de On The Bed
TTITLE1=碧い雨
TTITLE2=No Make de On The Bed (Back Drop Mix)
EXTD=YEAR: 1997
EXTT0=
EXTT1=
EXTT2=
PLAYORDER=
